<svg width="130" height="35" viewBox="0 0 130 35" fill="none" xmlns="http://www.w3.org/2000/svg">
<path d="M39.558 16.892C40.174 16.892 40.678 16.9853 41.07 17.172C41.4713 17.3493 41.826 17.5593 42.134 17.802C42.3207 17.942 42.4607 17.9607 42.554 17.858C42.6567 17.746 42.7267 17.4893 42.764 17.088H43.086C43.0673 17.452 43.0533 17.8953 43.044 18.418C43.0347 18.9313 43.03 19.6173 43.03 20.476H42.708C42.6613 20.0467 42.6007 19.6827 42.526 19.384C42.4513 19.076 42.3487 18.8053 42.218 18.572C42.0873 18.3387 41.9007 18.1287 41.658 17.942C41.4247 17.7087 41.154 17.536 40.846 17.424C40.538 17.312 40.216 17.256 39.88 17.256C39.376 17.256 38.9467 17.3913 38.592 17.662C38.2373 17.9233 37.948 18.2827 37.724 18.74C37.5093 19.1973 37.3507 19.7153 37.248 20.294C37.1453 20.8633 37.094 21.456 37.094 22.072C37.094 22.6973 37.1453 23.2993 37.248 23.878C37.36 24.4473 37.528 24.956 37.752 25.404C37.9853 25.852 38.284 26.2067 38.648 26.468C39.012 26.7293 39.4413 26.86 39.936 26.86C40.244 26.86 40.552 26.804 40.86 26.692C41.1773 26.5707 41.448 26.398 41.672 26.174C42.036 25.894 42.2833 25.5487 42.414 25.138C42.5447 24.718 42.6427 24.1627 42.708 23.472H43.03C43.03 24.3587 43.0347 25.0773 43.044 25.628C43.0533 26.1693 43.0673 26.6267 43.086 27H42.764C42.7267 26.5987 42.6613 26.3467 42.568 26.244C42.484 26.1413 42.3393 26.1553 42.134 26.286C41.7887 26.5287 41.42 26.7433 41.028 26.93C40.6453 27.1073 40.1507 27.196 39.544 27.196C38.5547 27.196 37.6867 26.9953 36.94 26.594C36.2027 26.1927 35.6287 25.614 35.218 24.858C34.8073 24.102 34.602 23.192 34.602 22.128C34.602 21.0827 34.812 20.168 35.232 19.384C35.6613 18.6 36.2447 17.9887 36.982 17.55C37.7287 17.1113 38.5873 16.892 39.558 16.892ZM51.3891 16.892C52.3784 16.892 53.2418 17.0927 53.9791 17.494C54.7258 17.8953 55.3044 18.474 55.7151 19.23C56.1258 19.9767 56.3311 20.8867 56.3311 21.96C56.3311 23.0053 56.1211 23.92 55.7011 24.704C55.2811 25.488 54.6931 26.0993 53.9371 26.538C53.1904 26.9767 52.3364 27.196 51.3751 27.196C50.3858 27.196 49.5178 26.9953 48.7711 26.594C48.0338 26.1927 47.4598 25.614 47.0491 24.858C46.6384 24.102 46.4331 23.192 46.4331 22.128C46.4331 21.0827 46.6431 20.168 47.0631 19.384C47.4924 18.6 48.0758 17.9887 48.8131 17.55C49.5598 17.1113 50.4184 16.892 51.3891 16.892ZM51.3331 17.144C50.8104 17.144 50.3531 17.354 49.9611 17.774C49.5784 18.194 49.2798 18.7727 49.0651 19.51C48.8598 20.2473 48.7571 21.1013 48.7571 22.072C48.7571 23.0613 48.8738 23.9247 49.1071 24.662C49.3498 25.39 49.6718 25.9547 50.0731 26.356C50.4838 26.748 50.9364 26.944 51.4311 26.944C51.9538 26.944 52.4064 26.734 52.7891 26.314C53.1811 25.894 53.4798 25.3153 53.6851 24.578C53.8998 23.8313 54.0071 22.9773 54.0071 22.016C54.0071 21.0173 53.8858 20.154 53.6431 19.426C53.4098 18.698 53.0878 18.138 52.6771 17.746C52.2758 17.3447 51.8278 17.144 51.3331 17.144ZM68.4853 17.088V17.368C68.1866 17.4053 67.9626 17.4847 67.8133 17.606C67.6639 17.718 67.5613 17.9 67.5053 18.152C67.4586 18.404 67.4353 18.7587 67.4353 19.216V27.028C67.3233 27.0187 67.2066 27.014 67.0853 27.014C66.9733 27.014 66.8519 27.0187 66.7213 27.028L60.6453 19.328V24.704C60.6453 25.2173 60.6733 25.614 60.7293 25.894C60.7853 26.1647 60.9066 26.3607 61.0933 26.482C61.2893 26.594 61.5926 26.6733 62.0033 26.72V27C61.8259 26.9813 61.5926 26.972 61.3033 26.972C61.0139 26.9627 60.7433 26.958 60.4913 26.958C60.2766 26.958 60.0573 26.9627 59.8333 26.972C59.6093 26.972 59.4226 26.9813 59.2733 27V26.72C59.5719 26.6733 59.7959 26.594 59.9453 26.482C60.0946 26.37 60.1926 26.188 60.2393 25.936C60.2953 25.6747 60.3233 25.32 60.3233 24.872V18.572C60.3233 18.2267 60.2953 17.9747 60.2393 17.816C60.1926 17.648 60.0899 17.536 59.9313 17.48C59.7819 17.4147 59.5626 17.3773 59.2733 17.368V17.088C59.4226 17.0973 59.6093 17.1067 59.8333 17.116C60.0573 17.1253 60.2766 17.13 60.4913 17.13C60.7153 17.13 60.9299 17.1253 61.1353 17.116C61.3406 17.1067 61.5273 17.0973 61.6953 17.088L67.1133 23.766V19.384C67.1133 18.8707 67.0853 18.4787 67.0293 18.208C66.9733 17.928 66.8473 17.7273 66.6513 17.606C66.4646 17.4847 66.1659 17.4053 65.7553 17.368V17.088C65.9326 17.0973 66.1659 17.1067 66.4553 17.116C66.7446 17.1253 67.0153 17.13 67.2673 17.13C67.4913 17.13 67.7106 17.1253 67.9253 17.116C68.1493 17.1067 68.3359 17.0973 68.4853 17.088ZM81.4471 26.832L81.6991 26.902C81.6244 27.4153 81.5078 27.854 81.3491 28.218C81.1904 28.5913 80.9851 28.8807 80.7331 29.086C80.5371 29.2447 80.2804 29.3753 79.9631 29.478C79.6551 29.5807 79.3098 29.632 78.9271 29.632C78.4138 29.632 77.9098 29.5527 77.4151 29.394C76.9298 29.2353 76.4351 29.0393 75.9311 28.806C75.4271 28.582 74.8951 28.3627 74.3351 28.148C74.2698 28.1293 74.2044 28.106 74.1391 28.078C74.0831 28.0593 74.0364 28.05 73.9991 28.05C73.8218 28.134 73.6258 28.204 73.4111 28.26C73.2058 28.316 73.0098 28.344 72.8231 28.344C72.6364 28.344 72.4778 28.316 72.3471 28.26C72.2258 28.204 72.1651 28.1107 72.1651 27.98C72.1651 27.728 72.4218 27.602 72.9351 27.602C73.2618 27.602 73.6164 27.6673 73.9991 27.798C74.3444 27.7047 74.6384 27.5973 74.8811 27.476C75.1331 27.364 75.3898 27.2567 75.6511 27.154C75.9218 27.0513 76.2484 26.986 76.6311 26.958L76.6451 27.182C76.3464 27.21 76.0898 27.2613 75.8751 27.336C75.6698 27.42 75.4598 27.5087 75.2451 27.602C75.0304 27.6953 74.7784 27.784 74.4891 27.868C75.1518 27.9147 75.7678 27.9613 76.3371 28.008C76.9064 28.064 77.4338 28.0967 77.9191 28.106C78.4044 28.1247 78.8431 28.106 79.2351 28.05C79.8138 27.9847 80.2711 27.8587 80.6071 27.672C80.9431 27.4853 81.2231 27.2053 81.4471 26.832ZM76.3091 16.892C77.2984 16.892 78.1618 17.0927 78.8991 17.494C79.6458 17.8953 80.2244 18.474 80.6351 19.23C81.0458 19.9767 81.2511 20.8867 81.2511 21.96C81.2511 23.0053 81.0411 23.92 80.6211 24.704C80.2011 25.488 79.6131 26.0993 78.8571 26.538C78.1104 26.9767 77.2564 27.196 76.2951 27.196C75.3058 27.196 74.4378 26.9953 73.6911 26.594C72.9538 26.1927 72.3798 25.614 71.9691 24.858C71.5584 24.102 71.3531 23.192 71.3531 22.128C71.3531 21.0827 71.5631 20.168 71.9831 19.384C72.4124 18.6 72.9958 17.9887 73.7331 17.55C74.4798 17.1113 75.3384 16.892 76.3091 16.892ZM76.2531 17.144C75.7304 17.144 75.2731 17.354 74.8811 17.774C74.4984 18.194 74.1998 18.7727 73.9851 19.51C73.7798 20.2473 73.6771 21.1013 73.6771 22.072C73.6771 23.0613 73.7938 23.9247 74.0271 24.662C74.2698 25.39 74.5918 25.9547 74.9931 26.356C75.4038 26.748 75.8564 26.944 76.3511 26.944C76.8738 26.944 77.3264 26.734 77.7091 26.314C78.1011 25.894 78.3998 25.3153 78.6051 24.578C78.8198 23.8313 78.9271 22.9773 78.9271 22.016C78.9271 21.0173 78.8058 20.154 78.5631 19.426C78.3298 18.698 78.0078 18.138 77.5971 17.746C77.1958 17.3447 76.7478 17.144 76.2531 17.144ZM93.1383 17.088V17.368C92.8396 17.4053 92.611 17.4847 92.4523 17.606C92.303 17.718 92.205 17.9 92.1583 18.152C92.1116 18.404 92.0883 18.7587 92.0883 19.216V22.926C92.0883 23.5327 92.0463 24.088 91.9623 24.592C91.8783 25.096 91.729 25.53 91.5143 25.894C91.2716 26.2953 90.917 26.6127 90.4503 26.846C89.9836 27.0793 89.391 27.196 88.6723 27.196C88.243 27.196 87.8043 27.1447 87.3563 27.042C86.9083 26.9487 86.507 26.7667 86.1523 26.496C85.8536 26.244 85.625 25.9593 85.4663 25.642C85.3076 25.3247 85.2003 24.9513 85.1443 24.522C85.0883 24.0833 85.0603 23.5653 85.0603 22.968V18.572C85.0603 18.2267 85.0323 17.9747 84.9763 17.816C84.9296 17.648 84.8316 17.536 84.6823 17.48C84.533 17.4147 84.309 17.3773 84.0103 17.368V17.088C84.2436 17.0973 84.5563 17.1067 84.9483 17.116C85.3496 17.1253 85.765 17.13 86.1943 17.13C86.6236 17.13 87.0343 17.1253 87.4263 17.116C87.8276 17.1067 88.159 17.0973 88.4203 17.088V17.368C88.103 17.3773 87.8603 17.4147 87.6923 17.48C87.5336 17.536 87.4263 17.648 87.3703 17.816C87.3143 17.9747 87.2863 18.2267 87.2863 18.572V23.85C87.2863 24.3167 87.3143 24.732 87.3703 25.096C87.4356 25.4507 87.5383 25.7493 87.6783 25.992C87.8276 26.2253 88.0283 26.4027 88.2803 26.524C88.5323 26.6453 88.845 26.706 89.2183 26.706C89.8716 26.706 90.3803 26.552 90.7443 26.244C91.1176 25.936 91.379 25.5113 91.5283 24.97C91.687 24.4193 91.7663 23.7893 91.7663 23.08V19.384C91.7663 18.8707 91.7336 18.4787 91.6683 18.208C91.603 17.928 91.4723 17.7273 91.2763 17.606C91.0896 17.4847 90.8003 17.4053 90.4083 17.368V17.088C90.5856 17.0973 90.819 17.1067 91.1083 17.116C91.3976 17.1253 91.6683 17.13 91.9203 17.13C92.1443 17.13 92.3636 17.1253 92.5783 17.116C92.8023 17.1067 92.989 17.0973 93.1383 17.088ZM103.323 17.088C103.285 17.4987 103.257 17.8953 103.239 18.278C103.229 18.6607 103.225 18.9547 103.225 19.16C103.225 19.3467 103.229 19.524 103.239 19.692C103.248 19.86 103.257 20 103.267 20.112H102.945C102.851 19.4307 102.707 18.894 102.511 18.502C102.315 18.1007 102.058 17.8207 101.741 17.662C101.433 17.494 101.069 17.41 100.649 17.41H100.075C99.804 17.41 99.5986 17.4333 99.4586 17.48C99.3186 17.5267 99.2253 17.62 99.1786 17.76C99.132 17.9 99.1086 18.1147 99.1086 18.404V25.684C99.1086 25.9733 99.132 26.188 99.1786 26.328C99.2253 26.468 99.3186 26.5613 99.4586 26.608C99.5986 26.6547 99.804 26.678 100.075 26.678H100.761C101.181 26.678 101.549 26.5893 101.867 26.412C102.193 26.2253 102.469 25.9127 102.693 25.474C102.926 25.0353 103.103 24.4427 103.225 23.696H103.547C103.519 23.9947 103.505 24.3867 103.505 24.872C103.505 25.0867 103.509 25.39 103.519 25.782C103.528 26.174 103.556 26.58 103.603 27C103.127 26.9813 102.59 26.972 101.993 26.972C101.395 26.9627 100.863 26.958 100.397 26.958C100.163 26.958 99.8646 26.958 99.5006 26.958C99.1366 26.958 98.7446 26.9627 98.3246 26.972C97.9046 26.972 97.48 26.9767 97.0506 26.986C96.6213 26.986 96.2153 26.9907 95.8326 27V26.72C96.1313 26.7013 96.3553 26.664 96.5046 26.608C96.654 26.552 96.752 26.44 96.7986 26.272C96.8546 26.104 96.8826 25.852 96.8826 25.516V18.572C96.8826 18.2267 96.8546 17.9747 96.7986 17.816C96.752 17.648 96.6493 17.536 96.4906 17.48C96.3413 17.4147 96.122 17.3773 95.8326 17.368V17.088C96.2153 17.0973 96.6213 17.1067 97.0506 17.116C97.48 17.116 97.9046 17.1207 98.3246 17.13C98.7446 17.13 99.1366 17.13 99.5006 17.13C99.8646 17.13 100.163 17.13 100.397 17.13C100.826 17.13 101.311 17.13 101.853 17.13C102.403 17.1207 102.893 17.1067 103.323 17.088ZM101.139 21.876C101.139 21.876 101.139 21.9227 101.139 22.016C101.139 22.1093 101.139 22.156 101.139 22.156H98.6886C98.6886 22.156 98.6886 22.1093 98.6886 22.016C98.6886 21.9227 98.6886 21.876 98.6886 21.876H101.139ZM101.545 20.028C101.507 20.56 101.489 20.966 101.489 21.246C101.498 21.526 101.503 21.7827 101.503 22.016C101.503 22.2493 101.507 22.506 101.517 22.786C101.526 23.066 101.549 23.472 101.587 24.004H101.265C101.218 23.6773 101.129 23.374 100.999 23.094C100.877 22.814 100.7 22.59 100.467 22.422C100.233 22.2447 99.93 22.156 99.5566 22.156V21.876C99.8366 21.876 100.075 21.82 100.271 21.708C100.467 21.5867 100.625 21.4327 100.747 21.246C100.877 21.05 100.98 20.8447 101.055 20.63C101.129 20.4153 101.185 20.2147 101.223 20.028H101.545ZM110.166 16.906C110.716 16.906 111.141 16.9667 111.44 17.088C111.738 17.2 111.995 17.3213 112.21 17.452C112.322 17.5173 112.41 17.5687 112.476 17.606C112.55 17.634 112.62 17.648 112.686 17.648C112.779 17.648 112.844 17.5967 112.882 17.494C112.928 17.3913 112.966 17.2373 112.994 17.032H113.316C113.306 17.2093 113.292 17.424 113.274 17.676C113.264 17.9187 113.255 18.2407 113.246 18.642C113.246 19.0433 113.246 19.5707 113.246 20.224H112.924C112.886 19.7387 112.774 19.2673 112.588 18.81C112.401 18.3527 112.135 17.9793 111.79 17.69C111.454 17.3913 111.038 17.242 110.544 17.242C110.096 17.242 109.727 17.368 109.438 17.62C109.148 17.872 109.004 18.222 109.004 18.67C109.004 19.0433 109.097 19.3653 109.284 19.636C109.47 19.8973 109.741 20.154 110.096 20.406C110.46 20.658 110.898 20.9613 111.412 21.316C111.86 21.6053 112.261 21.8947 112.616 22.184C112.97 22.4733 113.255 22.8 113.47 23.164C113.684 23.528 113.792 23.962 113.792 24.466C113.792 25.082 113.628 25.5907 113.302 25.992C112.984 26.3933 112.564 26.6967 112.042 26.902C111.519 27.098 110.945 27.196 110.32 27.196C109.741 27.196 109.279 27.14 108.934 27.028C108.588 26.916 108.299 26.7993 108.066 26.678C107.86 26.5473 107.702 26.482 107.59 26.482C107.496 26.482 107.426 26.5333 107.38 26.636C107.342 26.7387 107.31 26.8927 107.282 27.098H106.96C106.978 26.874 106.988 26.6127 106.988 26.314C106.997 26.0153 107.002 25.628 107.002 25.152C107.011 24.6667 107.016 24.0553 107.016 23.318H107.338C107.375 23.934 107.478 24.5127 107.646 25.054C107.823 25.586 108.089 26.0153 108.444 26.342C108.808 26.6687 109.288 26.832 109.886 26.832C110.212 26.832 110.502 26.776 110.754 26.664C111.015 26.5427 111.225 26.3653 111.384 26.132C111.542 25.8987 111.622 25.6093 111.622 25.264C111.622 24.872 111.528 24.5313 111.342 24.242C111.164 23.9527 110.917 23.682 110.6 23.43C110.292 23.178 109.932 22.9213 109.522 22.66C109.083 22.3707 108.672 22.0813 108.29 21.792C107.907 21.5027 107.599 21.1713 107.366 20.798C107.142 20.4247 107.03 19.9813 107.03 19.468C107.03 18.88 107.174 18.3993 107.464 18.026C107.762 17.6433 108.15 17.3633 108.626 17.186C109.111 16.9993 109.624 16.906 110.166 16.906ZM125.313 17.088C125.276 17.564 125.248 18.0213 125.229 18.46C125.22 18.8987 125.215 19.2347 125.215 19.468C125.215 19.6733 125.22 19.8693 125.229 20.056C125.239 20.2427 125.248 20.4013 125.257 20.532H124.935C124.786 19.748 124.595 19.1273 124.361 18.67C124.137 18.2127 123.867 17.8907 123.549 17.704C123.232 17.508 122.859 17.41 122.429 17.41H122.107V25.404C122.107 25.7773 122.145 26.0573 122.219 26.244C122.303 26.4307 122.453 26.5567 122.667 26.622C122.882 26.678 123.195 26.7107 123.605 26.72V27C123.316 26.9907 122.929 26.9813 122.443 26.972C121.967 26.9627 121.468 26.958 120.945 26.958C120.432 26.958 119.947 26.9627 119.489 26.972C119.032 26.9813 118.663 26.9907 118.383 27V26.72C118.803 26.7107 119.121 26.678 119.335 26.622C119.55 26.5567 119.695 26.4307 119.769 26.244C119.844 26.0573 119.881 25.7773 119.881 25.404V17.41H119.573C119.144 17.41 118.771 17.508 118.453 17.704C118.136 17.8907 117.865 18.2127 117.641 18.67C117.417 19.118 117.221 19.7387 117.053 20.532H116.731C116.75 20.4013 116.759 20.2427 116.759 20.056C116.769 19.8693 116.773 19.6733 116.773 19.468C116.773 19.2347 116.764 18.8987 116.745 18.46C116.736 18.0213 116.713 17.564 116.675 17.088C117.105 17.0973 117.571 17.1067 118.075 17.116C118.589 17.1253 119.102 17.13 119.615 17.13C120.129 17.13 120.591 17.13 121.001 17.13C121.421 17.13 121.883 17.13 122.387 17.13C122.901 17.13 123.414 17.1253 123.927 17.116C124.441 17.1067 124.903 17.0973 125.313 17.088Z" fill="white"/>
<path d="M28.0281 20.2514C27.2874 22.5859 25.6488 25.4738 22.4601 27.1836C20.5758 28.194 18.5387 28.6283 16.5481 28.5485L16.6022 5.48841C17.1984 5.48867 17.9131 5.51848 18.6442 5.60154C18.9947 5.64137 19.338 5.69231 19.6664 5.75501C20.3908 5.92715 21.0981 6.16871 21.7774 6.47653C24.0085 7.48751 25.9361 9.21181 27.1835 11.5383C28.2129 13.4579 28.6441 15.5354 28.5435 17.5607C28.5011 18.2443 28.3458 19.1969 28.0281 20.2514ZM14.6016 5.75158L14.5487 28.2928C11.3558 27.5984 8.47862 25.5631 6.81481 22.4602C3.79881 16.8355 5.91356 9.83085 11.5382 6.81486C12.1905 6.4651 13.2788 6.03231 14.6016 5.75158Z" stroke="url(#paint0_linear_4452_2)" stroke-width="2"/>
<defs>
<linearGradient id="paint0_linear_4452_2" x1="4.91415" y1="15.338" x2="31.354" y2="16.9979" gradientUnits="userSpaceOnUse">
<stop offset="0.288448" stop-color="white"/>
<stop offset="0.780176" stop-color="white" stop-opacity="0"/>
</linearGradient>
</defs>
</svg>
